<?xml version="1.0" standalone="no"?>
<!DOCTYPE svg PUBLIC "-//W3C//DTD SVG 20010904//EN"
 "http://www.w3.org/TR/2001/REC-SVG-20010904/DTD/svg10.dtd">
<svg version="1.0" xmlns="http://www.w3.org/2000/svg"
 width="1600.000000pt" height="1600.000000pt" viewBox="0 0 1600.000000 1600.000000"
 preserveAspectRatio="xMidYMid meet">
<metadata>
Created by potrace 1.14, written by Peter Selinger 2001-2017
</metadata>
<g transform="translate(0.000000,1600.000000) scale(0.100000,-0.100000)"
fill="#000000" stroke="none">
<path d="M11104 13748 c46 -68 106 -163 134 -213 53 -95 110 -247 95 -252 -5
-2 -8 -53 -5 -118 l4 -115 -41 -83 c-51 -102 -139 -214 -300 -379 -68 -71
-121 -128 -118 -128 3 0 51 29 105 64 55 36 145 90 201 121 l101 57 31 -26
c36 -30 32 -30 214 -27 109 2 167 -2 259 -19 113 -20 201 -23 237 -6 18 8 115
-63 241 -175 42 -38 79 -69 83 -69 3 0 -23 42 -58 93 -96 137 -146 221 -192
324 l-42 92 12 83 c7 46 20 121 30 168 10 49 15 104 12 131 -5 41 -2 54 25 95
42 68 110 147 251 298 87 92 110 122 82 103 -566 -372 -755 -407 -1069 -197
-94 63 -296 229 -340 278 -11 12 -23 22 -28 22 -4 0 29 -55 76 -122z"/>
<path d="M11625 12335 c-32 -166 -114 -511 -167 -705 -11 -41 -23 -84 -25 -95
-71 -274 -252 -838 -393 -1224 -432 -1183 -1062 -2449 -1795 -3606 -719 -1136
-1578 -2191 -2388 -2931 -380 -347 -719 -608 -1087 -836 l-141 -87 91 -47 c51
-26 94 -54 96 -63 35 -120 114 -171 428 -277 370 -124 492 -123 740 2 727 368
1523 1138 2268 2194 425 602 903 1437 1245 2174 36 78 81 175 100 216 20 41
96 212 170 380 174 393 303 658 342 702 17 20 31 41 31 47 0 21 39 12 45 -12
7 -26 -1 -202 -9 -216 -4 -5 -10 -29 -15 -53 -39 -191 -212 -782 -351 -1198
-504 -1510 -1142 -2846 -1904 -3988 -105 -158 -193 -291 -195 -296 -4 -9 47
-5 153 10 32 5 47 4 43 -3 -10 -16 34 -50 82 -63 69 -18 175 -1 386 62 560
167 1067 415 1575 768 74 52 292 220 310 240 3 3 55 49 115 102 176 154 420
407 566 588 643 791 1011 1704 1088 2700 15 183 4 619 -19 800 -6 41 -15 116
-20 165 -6 50 -22 151 -36 225 -153 834 -523 1582 -1094 2215 -116 128 -104
66 -111 590 -3 254 -9 466 -12 471 -3 6 -8 61 -11 124 -13 274 -61 804 -85
925 l-8 40 -8 -40z"/>
<path d="M8065 11754 c-1018 -51 -1952 -362 -2780 -925 -410 -279 -830 -671
-1130 -1053 -339 -433 -602 -907 -777 -1400 -225 -638 -306 -1254 -253 -1947
33 -438 94 -753 216 -1113 95 -281 168 -406 323 -553 381 -362 907 -468 1541
-308 460 116 894 333 1480 743 96 67 352 268 486 382 497 422 1035 980 1509
1565 213 262 564 732 726 970 37 55 95 141 129 190 64 94 261 399 335 520 175
288 312 521 411 700 24 44 54 98 66 120 75 133 317 600 394 761 115 238 129
278 129 370 0 58 6 86 30 142 17 39 30 73 30 75 0 11 -236 146 -395 227 -561
285 -1155 455 -1797 515 -162 15 -539 26 -673 19z"/>
</g>
</svg>
